<?xml version="1.0" encoding="utf-8"?>
<!-- Generator: Adobe Illustrator 24.2.0, SVG Export Plug-In . SVG Version: 6.00 Build 0)  -->
<svg version="1.1" id="Layer_1" xmlns="http://www.w3.org/2000/svg" xmlns:xlink="http://www.w3.org/1999/xlink" x="0px" y="0px"
	 viewBox="0 0 1000 1000" style="enable-background:new 0 0 1000 1000;" xml:space="preserve">
<path d="M206.2,448.7c-33.9-51-31.3-134.9,25-181.3c2.5-2,4.8-4.2,7.4-6c24.1-16.6,41.8-14.5,62.1,6.9
	c20.4,21.4,38.4,44.7,54.9,69.2c20.6,30.6,48,51.7,86,55.7c10.7,1.1,21.2-0.3,31.4-4.2c3.5-1.3,7.1-4.8,11-1
	c3.8,3.8,4.1,8.6,2.9,13.4c-3.7,13.9-8.9,27.3-16.7,39.5c-24.5,38.6-58.6,64.1-103.7,73.6c-10.4,2.2-21.1,3-31.8,2.8
	C280.9,514.8,236.5,494.3,206.2,448.7z M515.3,398.5c7,14.7,15.8,28.4,26.6,40.6c27.2,31,59.2,52.6,102.7,51.1
	c4.5-0.3,9-0.4,13.6-0.8c42.6-3.6,80.8-17.4,109.7-50.1c64.5-72.8,51.8-164.1-5-232.7c-9.7-11.7-23.7-14.9-38.7-10.5
	c-18.2,5.3-32.2,16.2-41.1,33.1c-11.8,22.4-18.6,46.9-29.6,69.7c-14,29.2-30,56.9-53.9,79.4c-15.4,14.5-33,18.4-53.1,11.2
	c-8.1-2.9-15.7-6.6-23-11c-2.7-1.6-5.5-4.3-8.7-2.2c-3.3,2.2-4,6.2-3.6,10C511.7,390.7,513.4,394.6,515.3,398.5z M895.8,485.7
	c-0.1-2.1-0.1-4.6-2.8-5.1c-3.4-0.6-3.7,2.2-4.3,4.5c-0.9,3.6-1.6,7.3-2.5,10.9c-4.3,17.3-6.8,35.3-13.4,51.6
	c-11.2,27.6-25.4,53.9-42.9,78.2c-15.2,21.1-32.9,39.7-54.1,54.9c-5.3,3.8-7.8,3.2-9.1-3.4c-0.9-4.5-1-9.6-5.3-13.1
	c-3.6,3-3.4,7.3-3.9,11c-2.5,18.2-12.5,28.4-30.9,31c-8.4,1.2-10,0.3-8.7-8.4c0.6-4.2,2.5-8.2,0.3-12.5c-0.7-1.4-1.2-3.3-3.2-2.8
	c-1,0.3-2,1.7-2.5,2.8c-2,5.5-3.7,11.1-5.8,16.5c-6.8,17-18,23.8-36.2,22c-10-1-10.9-1.9-8.8-11.9c1.5-7.1,2.3-14.2,0.9-21.3
	c-0.4-2-0.9-4.8-3.4-4.9c-2.6-0.1-3.1,2.7-3.4,4.7c-1,7.4-1.8,14.8-2.6,22.2c-0.7,6.1-2.7,11.8-8.5,14.5
	c-11.9,5.7-24.4,9.3-37.8,7.2c-13.4-2.1-14.3-3.6-13.5-17.2c0.4-7.4,0.9-14.9-0.1-22.3c-0.4-3.2-0.8-6.6-3.3-9.7
	c-3.4,3.9-3.4,7.9-3.5,11.9c-0.3,6.4,0,12.8-0.7,19.1c-1.8,15.6-6.5,19.6-22.3,19.7c-4.3,0-8.5,0.2-12.8-0.2
	c-11.4-0.9-16.7-5.8-18.7-17.1c-1.3-7.9-2.1-15.9-5-23.4c-2.8-7.3-6.3-14.2-12.3-19.8c-2.3,2.8-1.2,4.8-0.8,6.8
	c3,15.4,6,30.8,9.2,46.2c0.7,3.3,1.7,6.6-2.8,7.7c-14.8,3.8-29.6,6.7-45,3.9c-9-1.7-15-6.8-16.5-16.1c-1-6.3-1-12.7-2.3-19
	c-0.9-4.4,0.1-11.9-5.1-11.9c-3.6,0-2.7,7.6-2.6,12c0.1,9.6,0.6,19.1,0.9,28.7c0.1,3.2-0.7,6.1-4.6,6.1c-13.8,0.2-27.7,1.7-41.4-0.9
	c-6.7-1.3-10-5.7-10.5-12.3c-0.2-2.6,0-5.4-0.4-8c-0.7-4.6-0.4-12.3-5.1-12c-5.6,0.4-2.7,7.6-3.1,12c0,0.3,0.1,0.5,0.1,0.8
	c1.5,16.5,1.5,16.5-14.8,16.9c-1.3,0-2.7,0.1-4,0c-13.4-0.6-20.3-6-24.4-18.9c-0.6-1.9-0.2-4.5-3.4-4.5c-2.1,2.2-1.5,5-1.7,7.5
	c-0.6,7-3.5,10.5-11.3,9.5c-25.5-3.4-39.4-10-42.9-36.3c0-0.2-0.4-0.4-0.9-0.8c-4,4.3-1.9,9.5-2.5,14.2c-0.4,3.1,0,6.8-5.3,5.5
	c-13.5-3.2-23.8-9.8-28.3-23.9c-2.1-6.6-1.3-13.4-3-20.4c-1.2,0.8-2.1,1-2.4,1.6c-2.7,4.7-3.6,10-5.1,15.1c-1.4,4.7-4,6.1-8.3,3.4
	c-29.1-18.5-56.1-39.4-77-67.3c-17.6-23.4-28.7-50.3-40.8-76.6c-1.3-2.7-1.6-6.2-5.5-8c-0.5,4.6,0.7,8.6,1.7,12.6
	c8.3,33,23.5,62,48.6,85.4c6,5.6,9.8,12,7.3,20.5c-1.2,4.2,1,4.8,4.4,5.5c20.7,4.3,28.5,14.6,27.6,36.1c-0.1,2.4-1.5,5.2,1.5,7
	c9.9-16.6,9.9-16.6,27.3-6.3c13.8,8.1,13.9,8.3,10.5,23.8c-1.2,5.6-2,11,0.9,16.3c0.8,1.4,1.5,3,3.5,2.5c1.7-0.4,1.5-2,1.7-3.3
	c0.7-4.7,1.2-9.5,2.1-14.2c1.2-6.7,5.4-9.3,12.1-8.4c15.1,1.8,23.1,10.6,23.8,26c0.1,3.2-0.9,6.6,1.1,10.4c2-3,3.5-5.2,5-7.4
	c6.5-9.7,12.3-11.8,23.8-8.5c3.8,1.1,7.6,2.4,11.3,4c16.7,7.1,16.7,7.1,13.9,25c-0.9,5.8-1.8,11.6,0.8,17.3c1,2.1,2,5.1,4.7,4.6
	c2.6-0.5,1.7-3.6,1.7-5.5c0.1-7.2,0.9-14.3,3.3-21.2c3.3-9.3,7.9-12.9,17.7-13.1c11.4-0.1,22,3.7,32.5,7.4c4,1.4,3.8,4.3,3.2,7.8
	c-1.3,7.3-2.5,14.7-3.1,22.1c-0.6,7.5,0.1,14.9,3.2,24c3-5.6,2.7-9.6,2.9-13.4c0.4-8.2,0.4-16.5,2.6-24.5
	c3.3-11.9,13.1-18.5,25.3-16.8c2.9,0.4,5.7,1.1,8.6,1.8c19,4.2,18.9,4.2,18.7,23.7c-0.1,5.9-1,12.2,2.4,17.9c4-2.2,3.8-5.9,4.1-9.2
	c0.4-4.5,0.3-9,0.6-13.6c0.7-12.6,4.9-17.6,17.1-20.6c13.3-3.3,26.4-1.6,39.6,0.6c4.9,0.8,6.7,3.2,6.9,7.9c0.3,8.8,1,17.5,1.5,26.3
	c0.1,1.5-0.3,3.6,1.6,4.1c2.4,0.6,3.2-1.7,3.9-3.2c2.8-6.1,3.9-12.7,4.3-19.4c1-14.5,1.1-14.6,15.3-17.1
	c23.1-4.1,26.5-1.7,30.8,21.6c1.1,5.7,1.9,11.5,3.3,17.2c0.7,2.9,2.7,5.9,6,5.4c3.8-0.6,2.2-4.3,2.2-6.7c0.1-10.6,0-21.3,0-31.9
	c0-2.9,0-5.7,2.9-7.7c17.8-12.6,43.7-6.5,53.9,12.7c4.3,8.2,6.4,17.1,10,27.2c2.5-5.3,2.7-9.3,2.3-13.5c-0.8-8.6-3.8-16.6-6.3-24.7
	c-1.9-6.1-1.2-10.1,5.9-11.9c11.6-3,22.9-6.9,34.5-9.9c9.6-2.5,15.4,0.8,19.7,10.1c2,4.3,4.1,8.6,6.3,12.8c0.9,1.6,2.2,3.5,4.3,3
	c2.7-0.7,2.4-3.3,2.1-5.4c-1.1-6.6-4.1-12.7-6.9-18.6c-2.5-5.2-1.3-7.9,3.4-11c23.8-15.3,26.4-15.1,46.1,5.9c1.1,1.1,1.9,3,3.7,2.3
	c2.3-1,1.7-3.3,1-4.9c-2.4-5-3.9-10.4-7.2-15c-3.4-4.8-3.5-9.3,2.1-12.9c5.1-3.3,9.9-7.3,15.1-10.4c8.2-4.9,12.3-4.1,18.9,2.8
	c2.4,2.6,4.1,6.1,7.8,7.8c2.5-6.2,0-11.1-3.1-15.2c-5.2-6.8-4.3-12.6,1.2-18.4c2-2.1,3.8-4.4,5.6-6.7c8.4-10.6,20-18.6,26.8-30.5
	c19.2-33.5,32.9-69.6,47.7-105.1C895.3,509,896.5,497.3,895.8,485.7z M551.3,374.8c5.3-0.7,10.1-2.7,14.9-5.2
	c20.7-11.1,34.8-28.3,45.8-48.5c19.4-35.9,34-74.5,58.2-107.8c2-2.7,2.8-5.7,2-9c-1.1-4.5-3.1-7.1-7.6-3.1
	c-5,4.4-10.1,8.7-14.6,13.5c-19.9,20.9-32.4,46.5-45.9,71.5c-14.6,27-30.6,52.4-60.4,65.3c-5.6,2.4-7.5,7.4-5.5,13.3
	C540.2,370.9,544.7,374.3,551.3,374.8z M324.7,284.7c14.9,20.8,30.6,40.7,49.8,57.8c15.8,14,32.5,25.8,53.1,27.1
	c9.3,0.2,18.6-2.4,23.3-6.1c1.2-1,3.1-1.8,2.3-3.6c-0.4-0.9-2-1.6-3.2-1.9c-33.1-6.7-57.8-26.8-80.8-49.8
	c-12.2-12.2-24.5-24.3-36.8-36.4c-2-2-4-4.8-7.4-3.2c-3.9,1.9-3.4,5.5-3.4,9C321.6,280.5,323.2,282.5,324.7,284.7z M532.9,479.7
	c-6.2,4.7-5.9,10.7-3.7,17.2c5.3,15.8,15,28.5,27.5,39.3c4.1,3.5,8.1,7.3,14.1,4.9c6.5-2.7,6.8-8.8,7.9-16.3
	c-3.1-17.8-12.7-33-28.9-43.9C544.4,477.3,538.8,475.2,532.9,479.7z M471.8,546.3c0.9,6,4.2,3.9,7.2,1.1
	c13.5-12.3,18-28.3,18.7-46.6c-1.5-2.8,2.2-8.4-2.3-10c-4.3-1.6-7.5,3.2-10.3,6.1C471.3,510.7,468.9,527.9,471.8,546.3z"/>
</svg>
